<svg width="16" height="16" viewBox="0 0 16 16" fill="none" xmlns="http://www.w3.org/2000/svg">
<path d="M9.30754 12.2016C9.22548 12.3431 9.1077 12.4605 8.96598 12.5421C8.82427 12.6237 8.6636 12.6667 8.50006 12.6667C8.33652 12.6667 8.17585 12.6237 8.03414 12.5421C7.89243 12.4605 7.77464 12.3431 7.69258 12.2016M11.3006 6.13387C11.3006 5.39113 11.0055 4.67882 10.4803 4.15362C9.95512 3.62843 9.2428 3.33337 8.50006 3.33337C7.75732 3.33337 7.04501 3.62843 6.51981 4.15362C5.99462 4.67882 5.69956 5.39113 5.69956 6.13387C5.69956 9.40112 4.29932 10.3346 4.29932 10.3346H12.7008C12.7008 10.3346 11.3006 9.40112 11.3006 6.13387Z" stroke="white" stroke-linecap="round" stroke-linejoin="round"/>
</svg>
